<svg xmlns="http://www.w3.org/2000/svg" width="56.913" height="56.913" viewBox="0 0 56.913 56.913">
  <g id="podcast-icon" transform="translate(-115 -521)">
    <path id="Vector" d="M54.148,38.063a3.391,3.391,0,0,1-2.529-1.056,3.464,3.464,0,0,1-1.028-2.5V29.171a20.9,20.9,0,0,0-2.862-10.7,21.182,21.182,0,0,0-7.781-7.781,21.426,21.426,0,0,0-21.4,0,21.182,21.182,0,0,0-7.781,7.781,20.9,20.9,0,0,0-2.862,10.7v5.336a3.464,3.464,0,0,1-1.028,2.5,3.36,3.36,0,0,1-2.5,1.056,3.45,3.45,0,0,1-2.529-1.056,3.418,3.418,0,0,1-1.056-2.5V29.171a27.917,27.917,0,0,1,2.251-11.06A27.844,27.844,0,0,1,18.189,2.966a28.3,28.3,0,0,1,22.12,0A27.844,27.844,0,0,1,55.455,18.111a27.917,27.917,0,0,1,2.251,11.06v5.336a3.464,3.464,0,0,1-1.028,2.5A3.391,3.391,0,0,1,54.148,38.063Zm-24.9-26.678a17.351,17.351,0,0,1,8.92,2.39,17.788,17.788,0,0,1,6.475,6.475,17.352,17.352,0,0,1,2.39,8.92v3.557a3.464,3.464,0,0,1-1.028,2.5,3.359,3.359,0,0,1-2.5,1.056,3.606,3.606,0,0,1-3.585-3.557V29.171A10.627,10.627,0,0,0,29.249,18.5,10.627,10.627,0,0,0,18.578,29.171v3.557a3.464,3.464,0,0,1-1.028,2.5,3.359,3.359,0,0,1-2.5,1.056,3.606,3.606,0,0,1-3.585-3.557V29.171a17.351,17.351,0,0,1,2.39-8.92,17.787,17.787,0,0,1,6.475-6.475A17.351,17.351,0,0,1,29.249,11.386Z" transform="translate(114.207 520.285)" fill="#eb3438"/>
    <path id="Vector-2" data-name="Vector" d="M29.249,22.057a7.116,7.116,0,0,1,7.114,7.114,7.116,7.116,0,0,1-7.114,7.114,7.116,7.116,0,0,1-7.114-7.114,7.116,7.116,0,0,1,7.114-7.114ZM25.692,39.842h7.114A3.512,3.512,0,0,1,36.363,43.4L32.806,54.07a3.464,3.464,0,0,1-1.028,2.5,3.36,3.36,0,0,1-2.5,1.056,3.606,3.606,0,0,1-3.585-3.557L22.135,43.4a3.512,3.512,0,0,1,3.557-3.557Z" transform="translate(114.207 520.285)" fill="#4b4b4d"/>
  </g>
</svg>
