<svg width="34" height="26" viewBox="0 0 34 26" fill="none" xmlns="http://www.w3.org/2000/svg">
<path d="M24.5933 25.733H9.25933C8.82583 25.733 8.53683 25.4426 8.53683 25.0091C8.53683 24.5756 8.82583 24.2865 9.25933 24.2865H24.7407C25.1742 24.2865 25.4632 24.5756 25.4632 25.0091C25.4632 25.4426 25.0297 25.7315 24.5962 25.7315L24.5933 25.733ZM2.31625 0.266968C1.0115 0.266968 0 1.28413 0 2.58463V20.378C0 21.6813 1.0115 22.6928 2.31483 22.6928H31.6823C32.9857 22.6928 34 21.6813 34 20.3794V2.58463C34 1.2813 32.9857 0.266968 31.6823 0.266968H2.31625ZM13.4555 6.49038L22.2813 11.4091L13.4555 16.4736V6.49038Z" fill="#ED1C24"/>
</svg>
