<svg id="Layer_1" data-name="Layer 1" xmlns="http://www.w3.org/2000/svg" viewBox="0 0 200.83 66.45"><defs><style>.cls-1{fill:#414042;}.cls-2{fill:#bcbec0;}</style></defs><title>Shilapatra final logo_Whitemode-02</title><path class="cls-1" d="M42.78,19.38a10.87,10.87,0,0,1-1.14.15q-.5,0-.64-.21Q28.45,8.69,18.42,8.69A14.28,14.28,0,0,0,12.37,10Q8.85,11.54,8.85,14.4q0,4.85,4,6.06h5.84v4H12.84V59a3.79,3.79,0,0,0,1.53,3.17,5.68,5.68,0,0,0,3.56,1.18q2,0,2,1.33t-2.2,1.42a12,12,0,0,1-7.13-2.32,7.42,7.42,0,0,1-3.56-6.28V24.37H0v-4H7.7q-4.89-5.63-4.89-8.21A7.89,7.89,0,0,1,7.07,5.31a15.47,15.47,0,0,1,8.2-2.26q10,0,27.16,14.21a1.83,1.83,0,0,1,.78,1.42A.66.66,0,0,1,42.78,19.38Z"/><path class="cls-1" d="M44.85,32.36a16.83,16.83,0,0,1-3.13,10,17.8,17.8,0,0,1-8.35,6.42c.19,1.86,1.33,12.71,3.49,13.71a13.18,13.18,0,0,0,5.7,1.21,1.08,1.08,0,0,1,1.21,1.21q0,1.33-1.21,1.33H35.08A2.13,2.13,0,0,1,33,64.71a151.42,151.42,0,0,1-4.64-15.77,6.46,6.46,0,0,1-3.77-1.13,3.85,3.85,0,0,1-1.86-3.33,4.17,4.17,0,0,1,1.14-3,4,4,0,0,1,3-1.18q2.92,0,4.64,3.56a8.26,8.26,0,0,0,5.57-4.42,14.24,14.24,0,0,0,1.71-7.05,15.25,15.25,0,0,0-1.33-6.48q-1.71-3.79-4.85-3.79a3.48,3.48,0,0,0-3,1.67,6.27,6.27,0,0,0-1.14,3.6,6.35,6.35,0,0,0,2.14,5.06q2.28,1.42,4.85,3.35a1,1,0,0,1,.28.72q0,.93-2.35.93a11.64,11.64,0,0,1-8-3A9.84,9.84,0,0,1,22,26.72a6.11,6.11,0,0,1,3.07-5.31,11.13,11.13,0,0,1,6.2-1.71,14,14,0,0,1,9.55,3.6A11.62,11.62,0,0,1,44.85,32.36ZM62.59,65.24q0,1.5-1.42,1.5a13.85,13.85,0,0,1-7.49-2.2,7.41,7.41,0,0,1-3.85-6.4V24.37H45.49v-4H61.26v4H55.55V59.61a3.84,3.84,0,0,0,1.86,3.27,6.76,6.76,0,0,0,3.77,1.06Q62.59,64,62.59,65.24Z"/><path class="cls-1" d="M104.67,64q0,1.5-1.42,1.5a14.2,14.2,0,0,1-7.56-2.2,7.32,7.32,0,0,1-3.88-6.43V39.49l-7.05,4.06s-.32.56-.82,1.53-.8,1.46-.89,1.46q-2.56,0-4.64-5.49Q81,38.77,80.9,37.5a3.37,3.37,0,0,0-1.33-2.35,4.06,4.06,0,0,0-2.66-.93,7.09,7.09,0,0,0-5,2,11,11,0,0,0-2.7,5.57c-.9,5,2.32,11.73,5.18,13.87a14.45,14.45,0,0,0,8.91,3.07q2.14.07,2.14,1.71a1.59,1.59,0,0,1-1.08,1.5,3.39,3.39,0,0,1-2.14.28,25.24,25.24,0,0,1-12.19-5.7c-3.73-3.27-7.05-8.87-6.88-17,0-3.09,2.59-6.88,5.39-8.74a14.61,14.61,0,0,1,8.49-2.5,8.82,8.82,0,0,1,5.31,1.63,5.47,5.47,0,0,1,2.56,4.7q0,.29-.36,3l7.24-4.3v-9H59.93v-4h43.25v4H97.53V58.44a3.71,3.71,0,0,0,1.93,3.27,6.77,6.77,0,0,0,3.77,1.06Q104.67,62.75,104.67,64Z"/><path class="cls-1" d="M121.56,64q0,1.5-1.42,1.5a14.23,14.23,0,0,1-7.56-2.2,7.31,7.31,0,0,1-3.85-6.4V24.37h-7v-4h18.33v4h-5.68V58.44a3.71,3.71,0,0,0,1.93,3.27,6.77,6.77,0,0,0,3.77,1.06Q121.56,62.75,121.56,64Z"/><path class="cls-1" d="M155.28,64q0,1.57-1.5,1.57a12.59,12.59,0,0,1-7.7-2.42,8.17,8.17,0,0,1-3.64-6.92v-14c-2,2.56-4.45,7.89-7.2,7.89q-1.5,0-8-3.56-.64-.28-1.93-.93-1.5-.78-1.5-1.33a3,3,0,0,1,.32-1.06,2.92,2.92,0,0,0,.32-1.06V24.37h-5.84v-4h35.29v4h-5.84v34a3.84,3.84,0,0,0,1.86,3.27,6.77,6.77,0,0,0,3.77,1.06Q155.28,62.68,155.28,64Zm-12.83-29.3V24.37H130.19V43.61q0,1.55,2.58,1.55C136.6,45.16,139.82,39,142.45,34.67Z"/><path class="cls-1" d="M199.71,64a1.33,1.33,0,0,1-1.5,1.5,13.83,13.83,0,0,1-7.49-2.2,7.42,7.42,0,0,1-3.85-6.42V44.32L164,57.22a3,3,0,0,1-1.42.5,1.14,1.14,0,0,1-1.08-.72L159.55,53a1.33,1.33,0,0,1,0-1.16.93.93,0,0,1,.85-.5,8.91,8.91,0,0,0,3.56-.36l4.34-2.14a13,13,0,0,0,4.7-4A9.56,9.56,0,0,0,175.08,39a3,3,0,0,0-1.46-2.66,5.66,5.66,0,0,0-3.17-1,13,13,0,0,0-5.63,1.21q-3.21,1.5-3.35,4.21-.15,2.35-1.08,2.42a2.4,2.4,0,0,1-1.33-1.06l-3.56-5.42a18.14,18.14,0,0,1,14.17-6.64,8.51,8.51,0,0,1,7.28,4.4,16.83,16.83,0,0,1,2.66,8.53l7.23-4.32V24.37H152.58v-4h45.85v4h-5.84V58.44a3.84,3.84,0,0,0,1.86,3.27,6.77,6.77,0,0,0,3.79,1.06Q199.71,62.75,199.71,64Z"/><path class="cls-2" d="M76.17,5.31H74.54V14.2H73.21V11.32a2.72,2.72,0,0,1-.66.08,2.27,2.27,0,0,1-1.79-.77,2.72,2.72,0,0,1,0-3.65,2.23,2.23,0,0,1,1.71-.78,2.5,2.5,0,0,1,.7.11v-1H68.68a3.91,3.91,0,0,1,.77,2.32,3.6,3.6,0,0,1-.8,2.3,3.65,3.65,0,0,1-2.07,1.33l3.23,2.95H67.66l-5-4.56.94-1,.94.86a2,2,0,0,0,1.18.45,2.23,2.23,0,0,0,1.66-.65,2.28,2.28,0,0,0,.65-1.67,2.38,2.38,0,0,0-1.59-2.31H62v-1H76.17Zm-3,4.53V7.73a1.14,1.14,0,0,0-.68-.24,1.09,1.09,0,0,0-.85.41,1.33,1.33,0,0,0-.35.92,1.25,1.25,0,0,0,.35.89,1.12,1.12,0,0,0,.85.37A1.14,1.14,0,0,0,73.21,9.84Z"/><path class="cls-2" d="M85.17,5.23H83.57v8.94H82.24V12.38a3.48,3.48,0,0,1-4.7-.16,3.2,3.2,0,0,1-1-2.39,3.48,3.48,0,0,1,1-2.47,3.28,3.28,0,0,1,2.31-1.1,3.39,3.39,0,0,1,1.9.61V8.79a2,2,0,0,0-1.9-1.16,2.34,2.34,0,0,0-.56.07l2.39,3.11a2.09,2.09,0,0,0,.4-.84V5.23H75.66V4.32h9.51ZM80.8,11.69,78.22,8.41a2.09,2.09,0,0,0-.46,1.33,2.17,2.17,0,0,0,.62,1.53,1.94,1.94,0,0,0,1.47.69A2.06,2.06,0,0,0,80.8,11.69Z"/><path class="cls-2" d="M93.79,5.31H91.52a3,3,0,0,1,.41,1,4.16,4.16,0,0,1,.2,1.09,3.44,3.44,0,0,1-2.87,3.69l3.88,3.12h-2L85.38,9.51l1-.94,1,.82a2.07,2.07,0,0,0,1.17.39,2.26,2.26,0,0,0,1.69-.66,2.3,2.3,0,0,0,.66-1.69A2.35,2.35,0,0,0,89.6,5.31H84.74v-1h9Z"/><path class="cls-2" d="M108.82,5.31h-7.16V6.88a3.67,3.67,0,0,1,4.85.29,3.45,3.45,0,0,1,1.09,2.55,3.8,3.8,0,0,1-1.08,2.66A3.36,3.36,0,0,1,104,13.53a3.6,3.6,0,0,1-1.63-.4V11.5a2.18,2.18,0,0,0,1.54.64,2.22,2.22,0,0,0,1.65-.73,2.31,2.31,0,0,0,.7-1.65,2.15,2.15,0,0,0-.7-1.59,2.24,2.24,0,0,0-1.59-.68,2.39,2.39,0,0,0-1.5.6,1.74,1.74,0,0,0-.74,1.33v4.72h-1.46V12.72a3.49,3.49,0,0,1-2.27.82,3.56,3.56,0,0,1-2.59-1.08,3.48,3.48,0,0,1-1.09-2.56,3.77,3.77,0,0,1,1.08-2.66A3.37,3.37,0,0,1,97.9,6.1a3.71,3.71,0,0,1,1.79.54V8.33A2.11,2.11,0,0,0,98,7.49a2.22,2.22,0,0,0-1.63.69,2.27,2.27,0,0,0-.68,1.65,2.2,2.2,0,0,0,.65,1.65,2.44,2.44,0,0,0,3.27,0,2,2,0,0,0,.65-1.57V5.31H93.47v-1h15.35Z"/><path class="cls-2" d="M112.24,5.31h-1.57v8.93h-1.43V5.31h-.84v-1h3.85Z"/><path class="cls-2" d="M109.89,3.71a1.58,1.58,0,0,0-1,.72,4.58,4.58,0,0,1-1.51-1.33,7,7,0,0,0-1.17-1.33,4.52,4.52,0,0,0-2.44-.89l1-.88a4.24,4.24,0,0,1,2.13.84,11.82,11.82,0,0,1,1.33,1.43A6.64,6.64,0,0,0,109.89,3.71Z"/><path class="cls-2" d="M126.77,5.31h-3.33a3.36,3.36,0,0,1,.94,2.51,4.26,4.26,0,0,1-.15,1.1h1.86v1.18h-2V9.38a3.53,3.53,0,0,1-2.58,2l3.21,2.75h-2.13l-4.94-4.26.94-1q.9.82,1,.86a2,2,0,0,0,1.18.44,2.19,2.19,0,0,0,1.61-.68A2.14,2.14,0,0,0,123,8a2.82,2.82,0,0,0-1.33-2.66H117v-1h9.78Z"/><path class="cls-2" d="M137.71,5.31h-1.62V14.2h-1.43V12.3a4.69,4.69,0,0,1-3.32,1.1,4,4,0,0,1-3-1.45,5.68,5.68,0,0,1-1.42-3.2l1.33-.41a1.2,1.2,0,0,0,.53,1,1.86,1.86,0,0,0,1.14.37A2,2,0,0,0,131.46,9a2.54,2.54,0,0,0,.64-1.69,2.4,2.4,0,0,0-.6-1.58,1.81,1.81,0,0,0-1.43-.7,1.85,1.85,0,0,0-1.58,1h1.59V7.31h-3.27a4,4,0,0,1,1-2.5,3.16,3.16,0,0,1,2.46-1,2.79,2.79,0,0,1,2.28,1.06,3.81,3.81,0,0,1,.8,2.46,4,4,0,0,1-.86,2.58A2.91,2.91,0,0,1,130,11.05a4.16,4.16,0,0,1-.82-.08A2.66,2.66,0,0,0,131.55,12a4.32,4.32,0,0,0,1.78-.39,2.91,2.91,0,0,0,1.33-1.1V5.31h-1.33v-1h4.34Z"/><path class="cls-2" d="M141.19,5.31h-1.57v8.93h-1.43V5.31h-.84v-1h3.85Z"/><path class="cls-2" d="M153,5.31h-1.69v8.93h-1.49V12.35a5.17,5.17,0,0,1-3.23.94,5.06,5.06,0,0,1-2.76-.82A4.38,4.38,0,0,1,142,10.31a5.78,5.78,0,0,1-.45-1.94,3.19,3.19,0,0,1,0-.37L143,7.65a2.16,2.16,0,0,0,0,.49,1.42,1.42,0,0,0,.5,1.16,1.87,1.87,0,0,0,1.25.43,2.26,2.26,0,0,0,1.65-.65,2.18,2.18,0,0,0,.66-1.62,3.28,3.28,0,0,0-.33-1.33q-.46-.81-.92-.81h-5v-1H153Zm-3.17,0h-2.07a4.12,4.12,0,0,1,.56,2,3.73,3.73,0,0,1-1,2.66,3.2,3.2,0,0,1-2.47,1.09,3.88,3.88,0,0,1-.94-.12,3.23,3.23,0,0,0,2.35,1,5.49,5.49,0,0,0,2.15-.46q1.33-.54,1.33-1.43Z"/><path class="cls-2" d="M153.46,4.32a2.07,2.07,0,0,0-.76-1.18,2.13,2.13,0,0,0-1.33-.44,2.17,2.17,0,0,0-1.33.44,2.06,2.06,0,0,0-.76,1.18H148a3.19,3.19,0,0,1,1.13-2.07,3.44,3.44,0,0,1,2.27-.78,3.37,3.37,0,0,1,2.24.78,3.31,3.31,0,0,1,1.14,2.07h1.71v1h-1.71V14.2h-1.43V5.31H152v-1Z"/><path class="cls-2" d="M170.53,5.31h-2.66V7.15a3.59,3.59,0,0,1,1.66,3.11A3.85,3.85,0,0,1,163,13a3.6,3.6,0,0,1-1.13-2.66,3.89,3.89,0,0,1,1.09-2.74,3.48,3.48,0,0,1,2.66-1.18,3.71,3.71,0,0,1,.86.11V5.31h-5.31v-1h9.43Zm-2.5,5a2.28,2.28,0,0,0-.66-1.69,2.54,2.54,0,0,0-3.43,0,2.34,2.34,0,0,0,0,3.29,2.54,2.54,0,0,0,3.43,0,2.28,2.28,0,0,0,.66-1.66Z"/><path class="cls-2" d="M168.18,3.71a1.58,1.58,0,0,0-1,.72,4.58,4.58,0,0,1-1.51-1.33,7,7,0,0,0-1.17-1.33,4.52,4.52,0,0,0-2.39-.8l1-.88a4.24,4.24,0,0,1,2.13.84,11.82,11.82,0,0,1,1.33,1.43A6.64,6.64,0,0,0,168.18,3.71Z"/><path class="cls-2" d="M171.75,13.73l-1-2.35a4,4,0,0,0,2.66,1.13,3.08,3.08,0,0,0,2.43-1.18,3.91,3.91,0,0,0,.94-2.58,4,4,0,0,0-2.06-3.44H170v-1h13v1h-1.62V14.2H180V5.31h-3.16a5.67,5.67,0,0,1,1.33,3.48,5.31,5.31,0,0,1-1.33,3.59A4.38,4.38,0,0,1,173.38,14,5.31,5.31,0,0,1,171.75,13.73Z"/><path class="cls-2" d="M186.48,5.31h-1.57v8.93h-1.46V5.31h-.84v-1h3.85Z"/><path class="cls-2" d="M194.32,5.31H186v-1h11.42v1h-1.66v8.93h-1.43v-6H189.9a1.83,1.83,0,0,0-1.39.57,2,2,0,0,0-.54,1.43,2,2,0,0,0,.54,1.42,1.86,1.86,0,0,0,1.41.56,1.9,1.9,0,0,0,1.41-.58,2,2,0,0,0,.57-1.45,1.83,1.83,0,0,0-1-1.67h1.7a3.29,3.29,0,0,1,.5,1.74,3,3,0,0,1-1,2.24,3.16,3.16,0,0,1-2.27,1,3,3,0,0,1-2.2-1,3.16,3.16,0,0,1,0-4.47l0,0a3.07,3.07,0,0,1,2.26-.93h4.42Z"/><path class="cls-2" d="M200.83,5.31h-1.58v8.93h-1.43V5.31H197v-1h3.85Z"/></svg>